# xmcd CD database file
#
# Track frame offsets:
#	150
#	35640
#	68940
#	102659
#	126674
#	166183
#	195443
#	225357
#	255918
#	289952
#
# Disc length: 4368 seconds
#
# Revision: 1
# Processed by: cddbd v1.5.1PL0 Copyright (c) Steve Scherf et al.
# Submitted via: CDex 1.51
#
DISCID=8d110e0a
DTITLE=Martin Kälberer - ESPACO
DYEAR=1994
DGENRE=Jazz
TTITLE0=Lost Traditions
TTITLE1=Home
TTITLE2=Egbert der Zauberer
TTITLE3=Something Like This
TTITLE4=Forca Natureza
TTITLE5=Espaco
TTITLE6=And She Was Reading
TTITLE7=My Land
TTITLE8=Just For A While
TTITLE9=Por Causa de Voce
EXTD=YEAR: 1994
EXTT0=
EXTT1=
EXTT2=
EXTT3=
EXTT4=
EXTT5=
EXTT6=
EXTT7=
EXTT8=
EXTT9=
PLAYORDER=
